# xmcd CD database file
#
# Track frame offsets:
#	150
#	23435
#	56405
#	75372
#	98640
#	121237
#	144790
#	166235
#	187955
#	213180
#	255805
#	270865
#
# Disc length: 3946 seconds
#
# Revision: 0
# Processed by: cddbd v1.5.1PL0 Copyright (c) Steve Scherf et al.
# Submitted via: CDex 1.50
#
DISCID=7b0f680c
DTITLE=JAZZ Ballad MAX - JAZZ Ballad MAX
DYEAR=1900
DGENRE=Jazz
TTITLE0='ROUND ABOUT MIDNIGHT/CHET BAKER
TTITLE1=THE SUMMER KNOWS/PHIL WOODS
TTITLE2=VERY EARLY/GEORGES ARVANITAS
TTITLE3=THA SHADOW OF YOUR SMILE/ANN BURTON
TTITLE4=LOS ARETES DE LA LUNA/DAVID SANCHEZ
TTITLE5=WHY CAN'T WE LIVE TOGETHER/KYLE EASTWOOD
TTITLE6=THE CHIRISTMAS WALTZ/GROVER WASHINGTON,JR
TTITLE7=NEVER LET ME GO/KEIKO LEE
TTITLE8=I CAN'T GET STARTED/SONNY STITT
TTITLE9=ALICE IN WONDERLAND/DAVE BRUBECK
TTITLE10=YOU'VE CHANGED/BILLIE HOLIDAY
TTITLE11=BLUE IN GREEN/MILES DAVIS
EXTD=
EXTT0=
EXTT1=
EXTT2=
EXTT3=
EXTT4=
EXTT5=
EXTT6=
EXTT7=
EXTT8=
EXTT9=
EXTT10=
EXTT11=
PLAYORDER=
